<?xml version="1.0" standalone="no"?>
<!DOCTYPE svg PUBLIC "-//W3C//DTD SVG 20010904//EN"
 "http://www.w3.org/TR/2001/REC-SVG-20010904/DTD/svg10.dtd">
<svg version="1.0" xmlns="http://www.w3.org/2000/svg"
 width="200.000000pt" height="200.000000pt" viewBox="0 0 200.000000 200.000000"
 preserveAspectRatio="xMidYMid meet">

<g transform="translate(0.000000,200.000000) scale(0.100000,-0.100000)"
fill="#000000" stroke="none">
<path d="M865 1886 c-5 -3 -27 -7 -47 -11 l-38 -6 0 -63 c0 -72 -1 -73 -82
-105 l-58 -23 -46 41 c-26 23 -52 41 -59 41 -15 0 -97 -60 -154 -114 -51 -48
-141 -164 -141 -181 0 -7 18 -33 41 -59 l41 -46 -23 -58 c-32 -81 -33 -82
-105 -82 l-63 0 -8 -37 c-10 -49 -10 -317 0 -365 l8 -38 63 0 c72 0 73 -1 105
-82 l23 -58 -41 -46 c-23 -26 -41 -52 -41 -59 0 -15 60 -97 114 -154 48 -51
164 -141 181 -141 7 0 33 18 59 41 l46 41 58 -23 c81 -32 82 -33 82 -105 l0
-63 38 -8 c48 -10 316 -10 365 0 l37 8 0 63 c0 72 1 73 82 105 l58 23 46 -41
c26 -23 52 -41 59 -41 17 0 133 90 181 141 54 57 114 139 114 154 0 7 -18 33
-41 59 l-41 46 23 58 c32 81 33 82 105 82 l63 0 8 38 c10 48 10 316 0 365 l-8
37 -63 0 c-72 0 -73 1 -105 82 l-23 58 41 46 c23 26 41 52 41 59 0 15 -60 97
-114 154 -48 51 -164 141 -181 141 -7 0 -33 -18 -59 -41 l-46 -41 -58 23 c-81
32 -82 33 -82 104 0 56 -2 63 -22 70 -25 8 -317 17 -333 11z m207 -517 c201
-43 336 -238 298 -431 -32 -163 -145 -276 -308 -308 -246 -49 -480 186 -432
433 30 154 135 266 285 303 65 16 92 16 157 3z"/>
</g>
</svg>
