<?xml version="1.0" standalone="no"?>
<!DOCTYPE svg PUBLIC "-//W3C//DTD SVG 20010904//EN"
 "http://www.w3.org/TR/2001/REC-SVG-20010904/DTD/svg10.dtd">
<svg version="1.0" xmlns="http://www.w3.org/2000/svg"
 width="456" height="456" viewBox="0 0 456 456"
 preserveAspectRatio="xMidYMid meet">

<g fill="#FFFFFF" stroke="none">
<path d="M933 1463 c-19 -4 -23 -11 -23 -39 0 -29 -5 -36 -37 -49 -35 -15 -37
-14 -60 7 -21 19 -25 20 -49 7 -30 -16 -124 -115 -124 -132 0 -6 9 -20 20 -32
19 -20 19 -24 5 -58 -13 -32 -20 -37 -49 -37 -30 0 -34 -4 -40 -31 -8 -40 -8
-103 0 -151 6 -35 9 -38 41 -38 29 0 36 -5 47 -32 13 -29 12 -35 -5 -57 -10
-13 -19 -30 -19 -37 0 -16 96 -116 126 -132 18 -10 27 -8 49 10 25 20 28 20
60 5 27 -13 34 -23 37 -49 l3 -33 85 -3 c117 -4 130 0 130 42 0 31 4 36 36 46
32 11 38 10 59 -10 21 -20 27 -21 42 -10 36 27 95 86 115 113 l20 28 -22 24
c-20 21 -21 27 -10 59 10 32 15 36 46 36 42 0 46 13 42 130 l-3 85 -33 3 c-26
3 -36 10 -49 37 -15 32 -15 35 5 60 18 22 20 31 10 49 -16 30 -116 126 -132
126 -7 0 -24 -9 -37 -19 -22 -17 -28 -18 -57 -5 -27 11 -32 18 -32 47 0 32 -3
35 -37 41 -41 6 -124 6 -160 -1z m155 -268 c75 -32 114 -90 116 -170 2 -172
-217 -256 -327 -126 -127 151 30 371 211 296z"/>
</g>
</svg>
